<?xml version="1.0" encoding="UTF-8" standalone="no"?>
<svg
   xmlns:dc="http://purl.org/dc/elements/1.1/"
   xmlns:cc="http://creativecommons.org/ns#"
   xmlns:rdf="http://www.w3.org/1999/02/22-rdf-syntax-ns#"
   xmlns:svg="http://www.w3.org/2000/svg"
   xmlns="http://www.w3.org/2000/svg"
   xmlns:sodipodi="http://sodipodi.sourceforge.net/DTD/sodipodi-0.dtd"
   xmlns:inkscape="http://www.inkscape.org/namespaces/inkscape"
   version="1.1"
   id="svg3348"
   viewBox="0 0 400.00001 100"
   height="100"
   width="400"
   inkscape:version="0.91 r13725"
   sodipodi:docname="logo.svg">
  <sodipodi:namedview
     pagecolor="#ffffff"
     bordercolor="#666666"
     borderopacity="1"
     objecttolerance="10"
     gridtolerance="10"
     guidetolerance="10"
     inkscape:pageopacity="0"
     inkscape:pageshadow="2"
     inkscape:window-width="1538"
     inkscape:window-height="877"
     id="namedview4274"
     showgrid="false"
     inkscape:zoom="2.7577164"
     inkscape:cx="200"
     inkscape:cy="50"
     inkscape:window-x="-8"
     inkscape:window-y="-8"
     inkscape:window-maximized="1"
     inkscape:current-layer="svg3348" />
  <defs
     id="defs3350" />
  <metadata
     id="metadata3353">
    <rdf:RDF>
      <cc:Work
         rdf:about="">
        <dc:format>image/svg+xml</dc:format>
        <dc:type
           rdf:resource="http://purl.org/dc/dcmitype/StillImage" />
        <dc:title />
      </cc:Work>
    </rdf:RDF>
  </metadata>
  <g
     transform="matrix(0.94023213,0,0,0.94023213,-642.91871,-423.71946)"
     id="g4309">
    <path
       id="path3385"
       d="m 726.71477,462.86969 0,54.11719 271.26172,0 0,-54.11719 -271.26172,0 z m 42.15234,1.77344 c 4.8279,0 8.58907,1.4296 11.28516,4.28906 2.75879,2.85946 4.13867,6.89491 4.13867,12.10547 l 0,32.2168 -18.99805,0 0,-27.07031 c 0,-2.60528 -0.40757,-4.44905 -1.22265,-5.5293 -0.8151,-1.08024 -2.00672,-1.61914 -3.57422,-1.61914 -2.00639,0 -3.57257,0.76206 -4.70117,2.28711 -1.1286,1.4615 -1.69336,3.74965 -1.69336,6.86328 l 0,25.06836 -18.99805,0 0,-47.6582 17.11719,0 0.46875,9.8164 c 1.37939,-3.4949 3.45018,-6.1631 6.20898,-8.00586 2.7588,-1.84276 6.08137,-2.76367 9.96875,-2.76367 z m 47.79102,0 c 7.83748,0 13.85575,2.12931 18.05664,6.38672 4.20089,4.19387 6.30078,9.94445 6.30078,17.25195 0,2.28756 -0.15525,4.12938 -0.46875,5.52735 l -30.94336,0 c 0.37621,2.66882 1.22237,4.54281 2.53906,5.62304 1.3167,1.08025 3.16624,1.6211 5.54883,1.6211 3.8247,0 6.17689,-1.52413 7.05469,-4.57422 l 15.33008,4.47852 c -1.1913,4.32094 -3.79385,7.62648 -7.80664,9.91406 -3.9501,2.22401 -8.80974,3.33594 -14.57813,3.33594 -8.52718,0 -15.0481,-2.12931 -19.5625,-6.38672 -4.51439,-4.32095 -6.77148,-10.45355 -6.77148,-18.39649 0,-7.8794 2.19499,-13.97983 6.58398,-18.30078 4.45168,-4.32095 10.6912,-6.48047 18.7168,-6.48047 z m 121.42969,0 c 2.19448,0 3.8558,0.38006 4.98437,1.14258 l -1.78711,15.91797 c -0.56431,-0.44481 -1.37942,-0.79466 -2.44531,-1.04883 -1.0659,-0.25417 -2.22648,-0.38086 -3.48047,-0.38086 -2.94691,0 -5.32819,0.82639 -7.14648,2.47852 -1.8183,1.58859 -2.72852,3.9391 -2.72852,7.05273 l 0,23.44922 -18.99805,0 0,-47.6582 17.02344,0 0.56445,11.15234 c 1.1286,-3.87615 2.85198,-6.864 5.17188,-8.96094 2.3199,-2.09693 5.2679,-3.14453 8.8418,-3.14453 z m 32.78515,0 c 8.08827,0 14.35882,2.19167 18.81055,6.57617 4.51433,4.32095 6.77148,10.38922 6.77148,18.20508 0,7.81584 -2.25715,13.91628 -6.77148,18.30078 -4.45173,4.32096 -10.72228,6.48242 -18.81055,6.48243 -8.08826,0 -14.38989,-2.16147 -18.9043,-6.48243 -4.45173,-4.3845 -6.67773,-10.48494 -6.67773,-18.30078 0,-7.81586 2.226,-13.88413 6.67773,-18.20508 4.51441,-4.3845 10.81604,-6.57617 18.9043,-6.57617 z m -122.80469,0.95313 18.99805,0 0,27.25976 c 0,2.54174 0.37649,4.35336 1.12891,5.4336 0.8151,1.01669 2.06883,1.52539 3.76172,1.52539 2.00639,0 3.57452,-0.76403 4.70312,-2.28907 1.1286,-1.52504 1.69336,-3.81123 1.69336,-6.86132 l 0,-25.06836 18.99805,0 0,47.6582 -17.11719,0 -0.4707,-9.4375 c -2.8215,6.92624 -8.18185,10.39062 -16.08203,10.39063 -10.40818,0 -15.61329,-5.52938 -15.61329,-16.58594 l 0,-32.02539 z m -31.3164,12.10547 c -2.06908,0 -3.69932,0.60321 -4.89063,1.81054 -1.12859,1.20733 -1.8816,3.17779 -2.25781,5.91016 l 13.63672,0 c -0.31349,-2.60529 -1.00247,-4.54358 -2.06836,-5.81445 -1.00319,-1.27087 -2.47621,-1.90625 -4.41992,-1.90625 z m 154.12109,0.18945 c -2.3826,0 -4.07492,0.85854 -5.07812,2.57422 -0.94047,1.65213 -1.41211,4.63802 -1.41211,8.95898 0,4.32096 0.47164,7.33902 1.41211,9.05469 1.0032,1.65213 2.69552,2.47852 5.07812,2.47852 2.3826,0 4.04391,-0.82639 4.98438,-2.47852 1.0032,-1.71567 1.5039,-4.73373 1.5039,-9.05469 0,-4.32096 -0.5007,-7.30685 -1.5039,-8.95898 -0.94047,-1.71568 -2.60178,-2.57422 -4.98438,-2.57422 z"
       style="opacity:1;fill:#000000;fill-opacity:1;fill-rule:nonzero;stroke:none;stroke-width:2.16740918;stroke-miterlimit:4;stroke-dasharray:none;stroke-dashoffset:0;stroke-opacity:1"
       inkscape:connector-curvature="0" />
    <path
       inkscape:connector-curvature="0"
       id="path3387"
       d="m 1035.2812,464.64369 c -3.8874,0 -7.2119,0.92091 -9.9707,2.76367 -2.7587,1.84276 -4.8276,4.51096 -6.207,8.00586 l -0.4707,-9.8164 -17.1172,0 0,47.65625 18.998,0 0,-25.06641 c 0,-3.11363 0.5648,-5.40178 1.6934,-6.86328 1.1286,-1.52505 2.6967,-2.28711 4.7031,-2.28711 1.5675,0 2.7591,0.5389 3.5742,1.61914 0.8151,1.08025 1.2227,2.92402 1.2227,5.5293 l 0,27.06836 18.9981,0 0,-32.2168 c 0,-5.21056 -1.3799,-9.24406 -4.1387,-12.10352 -2.6961,-2.85946 -6.4572,-4.28906 -11.2852,-4.28906 z m 17.5586,0.95313 13.7305,35.55078 5.7383,13.53515 -0.6582,1.8125 c -0.5016,1.33442 -1.2857,2.25532 -2.3516,2.76367 -1.0659,0.50834 -2.57,0.76172 -4.5137,0.76172 -2.0691,0 -3.7323,-0.15885 -4.9863,-0.47656 -1.1913,-0.31773 -2.2878,-0.82642 -3.291,-1.52539 l -3.668,12.39258 c 3.5112,2.22402 8.0875,3.33594 13.7305,3.33594 4.5771,0 8.4644,-0.76403 11.6621,-2.28907 3.1977,-1.52504 5.9574,-3.97007 8.2773,-7.33789 2.3199,-3.3678 4.4508,-7.94411 6.3946,-13.72656 l 15.33,-44.79687 -18.7148,0 -5.9258,25.54296 -2.2558,10.86719 -1.9766,-10.58008 -5.6426,-25.83007 -20.8789,0 z m -44.7442,50.10351 c -1.6179,0 -3.0212,0.31667 -4.2109,0.95117 -1.1738,0.6345 -2.0784,1.56181 -2.7129,2.78321 -0.6345,1.2214 -0.9512,2.67406 -0.9512,4.35546 0,1.68142 0.3167,3.13211 0.9512,4.35352 0.6345,1.22141 1.5391,2.14872 2.7129,2.7832 1.1897,0.6345 2.593,0.95313 4.2109,0.95313 2.4587,0 4.3778,-0.70544 5.7578,-2.11719 1.3801,-1.42762 2.0704,-3.41881 2.0704,-5.97266 0,-2.55384 -0.6903,-4.53746 -2.0704,-5.94921 -1.38,-1.42762 -3.2991,-2.14063 -5.7578,-2.14063 z m 33.9513,0 c -1.6497,0 -3.0777,0.32425 -4.2833,0.97461 -1.1896,0.6345 -2.1093,1.56376 -2.7597,2.78516 -0.6345,1.2214 -0.9512,2.67968 -0.9512,4.37695 0,1.71314 0.3167,3.17337 0.9512,4.37891 0.6345,1.20554 1.4993,2.11768 2.5937,2.73632 1.1104,0.61864 2.3639,0.92774 3.7598,0.92774 2.0621,0 3.5128,-0.68271 4.3535,-2.04688 l 0.166,1.8086 3.2832,0 0,-8.68555 -7.3281,0 0,3.11719 3.2363,0 0,0.11914 c 0,0.68208 -0.2465,1.1979 -0.7382,1.54687 -0.4918,0.34897 -1.1499,0.52344 -1.9747,0.52344 -1.1262,0 -1.9587,-0.35651 -2.498,-1.07031 -0.5393,-0.71382 -0.8086,-1.84783 -0.8086,-3.40235 0,-2.91867 1.0544,-4.3789 3.1641,-4.3789 1.3324,0 2.1497,0.71496 2.4511,2.14258 l 4.5215,-1.68946 c -0.6344,-1.47519 -1.5163,-2.53909 -2.6426,-3.18945 -1.1262,-0.65036 -2.6243,-0.97461 -4.496,-0.97461 z m -23.8047,0.23828 0,15.70313 4.7578,0 0,-5.44922 1.9765,0 3.045,5.44922 5.3066,0 -3.832,-5.97266 c 1.9511,-0.77725 2.9277,-2.30761 2.9277,-4.5918 0,-1.68141 -0.5234,-2.95764 -1.5703,-3.83007 -1.0469,-0.87244 -2.5697,-1.3086 -4.5684,-1.3086 l -8.0429,0 z m -10.1466,3.47266 c 0.9676,0 1.6826,0.3565 2.1426,1.07031 0.4759,0.71381 0.7129,1.81754 0.7129,3.30859 0,1.49107 -0.237,2.59283 -0.7129,3.30665 -0.46,0.7138 -1.175,1.07031 -2.1426,1.07031 -0.9676,0 -1.6881,-0.35651 -2.164,-1.07031 -0.4759,-0.72968 -0.7149,-1.83144 -0.7149,-3.30665 0,-1.47519 0.239,-2.56939 0.7149,-3.2832 0.4759,-0.72967 1.1964,-1.0957 2.164,-1.0957 z m 14.9044,0.0723 2.3574,0 c 0.7773,0 1.331,0.13463 1.6641,0.4043 0.349,0.26966 0.5234,0.70582 0.5234,1.30859 0,0.60277 -0.1669,1.03894 -0.5,1.3086 -0.3331,0.2538 -0.8944,0.38086 -1.6875,0.38086 l -2.3574,0 0,-3.40235 z m -26.55086,7.63672 c -0.8407,0 -1.49873,0.21429 -1.97461,0.64258 -0.46001,0.41242 -0.68945,0.98322 -0.68945,1.71289 0,0.74553 0.22944,1.32586 0.68945,1.73828 0.47588,0.41242 1.13391,0.61719 1.97461,0.61719 0.84071,0 1.49117,-0.20477 1.95118,-0.61719 0.47587,-0.41242 0.71484,-0.99275 0.71484,-1.73828 0,-0.74553 -0.23897,-1.32391 -0.71484,-1.73633 -0.46001,-0.41242 -1.11047,-0.61914 -1.95118,-0.61914 z"
       style="font-style:normal;font-variant:normal;font-weight:800;font-stretch:normal;font-size:medium;line-height:125%;font-family:'Work Sans';-inkscape-font-specification:'Work Sans Ultra-Bold';letter-spacing:0px;word-spacing:0px;opacity:1;fill:#000000;fill-opacity:1;stroke:none;stroke-width:1px;stroke-linecap:butt;stroke-linejoin:miter;stroke-opacity:1" />
    <path
       inkscape:connector-curvature="0"
       d="m 981.86435,524.26899 c -5.97635,-0.0621 -11.95282,-0.11528 -17.92986,-0.14597 -16.54655,-0.044 -33.09257,-0.13547 -49.63922,-0.16215 -21.43553,0.0212 -42.87096,0.005 -64.30643,-0.0298 -21.3983,-0.0398 -42.79641,0.0208 -64.19441,0.0896 -14.82874,0.0917 -29.63836,0.6151 -44.40431,1.52381 -7.51249,0.53498 -15.10993,0.89584 -22.40785,2.29403 0,0 5.39338,-2.79681 5.39338,-2.79681 l 0,0 c 7.14645,-1.17034 14.50778,-1.43502 21.80586,-1.89563 14.71356,-0.83852 29.45693,-1.47059 44.23146,-1.39529 21.27645,0.0692 42.55303,0.12948 63.8298,0.0896 21.47585,-0.0352 42.95166,-0.051 64.42757,-0.0298 16.76659,-0.0269 33.53257,-0.1182 50.29907,-0.16215 6.17501,-0.0311 12.34949,-0.0845 18.52387,-0.14597 0,0 -5.62893,2.76647 -5.62893,2.76647 z"
       id="path4208"
       style="opacity:1;fill:#000000;fill-opacity:1;fill-rule:nonzero;stroke:none;stroke-width:2;stroke-miterlimit:4;stroke-dasharray:none;stroke-dashoffset:0;stroke-opacity:1" />
    <path
       inkscape:connector-curvature="0"
       d="m 723.06194,520.19531 c -1.43551,1.56243 -2.84028,3.1515 -4.15086,4.82199 -1.02369,1.25657 -1.43241,2.73366 -1.6184,4.30838 -0.086,1.2283 0.42475,2.22371 1.24494,3.09154 1.03878,0.62681 2.16694,1.09339 3.33503,1.41553 1.35614,0.1392 2.64834,0.53371 3.95951,0.88295 1.4369,0.33031 2.91766,0.37963 4.38559,0.42278 1.91711,0.0654 2.17455,-0.43723 -2.27305,2.07352 -0.12397,0.07 -0.28472,-0.002 -0.42707,-0.003 -0.15598,-8.3e-4 -0.31197,-10e-4 -0.46795,-0.002 -1.09508,-0.004 -2.19017,-0.007 -3.28526,-0.007 -1.5013,-0.008 -3.00263,-0.005 -4.50395,-0.002 -1.1177,-0.0481 -2.19833,-0.01 -3.2677,0.33097 -1.09227,0.25896 -2.09519,0.73028 -3.07388,1.26908 -0.17077,0.0839 -0.67642,0.34808 -0.51233,0.25174 4.54089,-2.66577 2.0994,-1.32761 0.94825,-0.002 -0.7609,0.98792 -1.42749,2.04335 -2.12264,3.07779 -0.6809,1.00546 -1.44335,1.94808 -2.23342,2.86853 -0.72458,0.85322 -1.21738,1.85138 -1.73457,2.83404 -0.29902,0.78545 -0.61439,1.68352 -0.54297,2.54003 0.41708,-1.29313 0.2057,-0.19654 -2.68022,1.26297 -0.10843,0.0548 0.17495,-0.17012 0.24773,-0.26742 0.20619,-0.27569 0.24979,-0.43635 0.38337,-0.7543 0.44342,-1.13135 0.6515,-2.33244 0.91845,-3.51293 0.2658,-1.13189 0.37732,-2.28816 0.4359,-3.44662 0.10657,-1.0771 0.0328,-2.05841 -0.36425,-3.06353 -0.51386,-1.21905 -1.425,-2.09746 -2.4506,-2.88734 -1.10843,-1.00483 -2.45612,-1.45866 -3.88888,-1.7694 -1.33023,-0.2285 -2.68224,-0.25232 -4.02827,-0.26134 -1.15324,10e-4 -2.30648,0.007 -3.45972,0.0121 -1.33179,-3.7e-4 -2.66357,0.002 -3.99536,0.004 -0.71387,-0.10787 -2.29811,0.28822 -2.8482,-0.25905 -0.077,-0.0766 -0.0871,-0.19897 -0.1306,-0.29846 0.60996,-2.25821 3.81656,-2.21746 5.68623,-2.53471 1.33964,-0.36961 2.69325,-0.67015 3.99135,-1.17356 1.44357,-0.27398 6.07719,-2.96102 0.83332,0.0195 1.09084,-0.58267 1.90134,-1.37073 2.34664,-2.52337 0.29908,-1.03563 0.27812,-2.12412 0.28289,-3.19204 0.009,-1.21911 0.0226,-2.43001 -0.15181,-3.63813 -0.18835,-1.05944 -0.28984,-2.1293 -0.34451,-3.203 -0.12376,-1.86206 1.05369,-1.63616 3.51366,-2.39519 0.0404,-0.0125 0.66162,0.48893 0.86236,0.6477 0.85311,0.81296 1.54283,1.76752 2.34402,2.63062 0.81259,0.84106 1.72054,1.61204 2.74343,2.18387 1.15309,0.59884 2.36759,1.03807 3.63404,1.321 1.25535,0.15681 2.49366,0.41792 3.74683,0.59321 1.28444,0.18268 2.55468,0.20761 3.82651,-0.0518 0.23602,-0.0794 1.1668,-0.38672 1.40367,-0.48914 0.1993,-0.0862 0.76658,-0.40791 0.57861,-0.29922 -2.80379,1.62122 -3.16461,1.94209 -2.01913,1.03956 0,0 3.23493,-1.31187 3.23493,-1.31187 l 0,0 c -1.65228,1.54939 -3.80286,2.55963 -5.97317,3.15331 -1.30063,0.20341 -2.60221,0.17224 -3.90377,-0.0311 -1.25574,-0.19182 -2.50547,-0.42468 -3.75991,-0.62064 -1.28543,-0.3179 -2.52664,-0.77782 -3.6967,-1.40249 -1.03255,-0.61927 -1.9686,-1.40024 -2.79822,-2.2721 -0.78751,-0.84949 -1.45795,-1.79812 -2.31396,-2.58099 -0.14944,-0.11215 -0.29489,-0.22984 -0.44832,-0.33646 -0.12714,-0.0883 -0.51015,-0.1471 -0.39272,-0.248 0.83507,-0.71752 1.86273,-1.17522 2.77187,-1.79623 0.0521,-0.0356 -0.14382,-0.0156 -0.18694,0.0305 -0.11464,0.1226 -0.063,0.53569 -0.0601,0.6337 0.0472,1.06403 0.13655,2.12543 0.32314,3.17528 0.1839,1.22384 0.19122,2.44753 0.17563,3.68435 -10e-4,1.1003 0.0293,2.21577 -0.22648,3.29392 -0.38612,1.22624 -1.11682,2.1323 -2.26278,2.75296 -2.23232,1.28683 -4.34895,2.65039 -6.82765,3.37861 -1.31881,0.46235 -2.67489,0.79801 -4.03386,1.11989 -0.57816,0.0851 -1.17292,0.12666 -1.74386,0.25456 -0.15812,0.0354 -0.60186,0.22262 -0.46809,0.13117 2.43482,-1.66461 3.69679,-1.59672 2.40863,-1.62296 -0.15928,0.14561 0.28797,0.16814 0.77032,0.18766 0.64347,0.026 1.28985,-0.0196 1.93352,-4.4e-4 1.33242,0.001 2.66486,0.002 3.99726,-0.007 1.1542,-0.004 2.30843,-0.0155 3.46263,-0.008 1.3587,0.0214 2.72371,0.0659 4.061,0.3298 1.46359,0.35513 2.83994,0.86851 3.98094,1.89026 1.06315,0.83575 1.99206,1.78456 2.54455,3.04405 0.43605,1.04796 0.56057,2.06055 0.44038,3.19434 -0.053,1.17722 -0.15514,2.35339 -0.41786,3.50512 -0.26562,1.18995 -0.47248,2.39842 -0.88353,3.54962 -0.51318,1.53636 -2.71271,4.33655 -4.23585,2.87692 -0.16554,-0.89519 0.23419,-1.89198 0.46557,-2.74479 0.51176,-1.00466 1.01802,-2.01317 1.71145,-2.90958 0.77296,-0.92618 1.57607,-1.8252 2.24566,-2.83324 0.70748,-1.03496 1.38384,-2.08753 2.10793,-3.11109 1.44745,-1.77206 3.36988,-2.86686 5.4988,-3.80033 1.0009,-0.51261 2.02338,-0.95381 3.12258,-1.21269 1.09371,-0.27053 2.19268,-0.28868 3.31615,-0.2474 1.50304,0.003 3.00608,0.006 4.50911,-0.001 1.09797,6.7e-4 2.19593,-8.9e-4 3.2939,0.002 0.1568,7e-5 0.3136,3.1e-4 0.4704,2.1e-4 0.14355,-9e-5 0.53202,-0.10242 0.43064,-7.9e-4 -2.15567,2.16088 -1.62531,2.10157 -3.38702,2.02391 -1.48596,-0.0581 -2.98546,-0.12347 -4.43434,-0.48643 -1.31141,-0.36045 -2.61936,-0.68544 -3.96583,-0.88625 -1.206,-0.36684 -2.4096,-0.84489 -3.44624,-1.57027 -0.8555,-0.95442 -1.42786,-2.04047 -1.3752,-3.36011 0.17132,-1.62341 0.52714,-3.18035 1.56438,-4.49367 1.29171,-1.66943 2.68178,-3.25831 4.10424,-4.81452 0,0 3.22006,-1.36813 3.22006,-1.36813 z"
       id="path4220"
       style="opacity:1;fill:#000000;fill-opacity:1;fill-rule:nonzero;stroke:none;stroke-width:2;stroke-miterlimit:4;stroke-dasharray:none;stroke-dashoffset:0;stroke-opacity:1" />
    <path
       inkscape:connector-curvature="0"
       d="m 707.84881,529.08563 c 0.58384,1.01888 1.24077,1.98937 1.88442,2.97051 0,0 -2.99153,1.7491 -2.99153,1.7491 l 0,0 c -0.63874,-0.98304 -1.2877,-1.95839 -1.91393,-2.94938 0,0 3.02104,-1.77023 3.02104,-1.77023 z"
       id="path4224"
       style="opacity:1;fill:#000000;fill-opacity:1;fill-rule:nonzero;stroke:none;stroke-width:2;stroke-miterlimit:4;stroke-dasharray:none;stroke-dashoffset:0;stroke-opacity:1" />
  </g>
</svg>
